<?xml version="1.0" encoding="utf-8"?>
<!-- Generator: Adobe Illustrator 18.0.0, SVG Export Plug-In . SVG Version: 6.00 Build 0)  -->
<!DOCTYPE svg PUBLIC "-//W3C//DTD SVG 1.1//EN" "http://www.w3.org/Graphics/SVG/1.1/DTD/svg11.dtd">
<svg width="1200" height="240" version="1.1" id="logo_agymflex" xmlns="http://www.w3.org/2000/svg" xmlns:xlink="http://www.w3.org/1999/xlink" x="0px" y="0px"
	 viewBox="26.8 276.7 1223.9 247.4" enable-background="new 26.8 276.7 1223.9 247.4" xml:space="preserve">
<g>
	<g>
		<path fill="#F7931E" d="M118.1,428.4c0,3.7,1.4,6.7,4.3,9c2.8,2.2,6.7,3.4,11.7,3.4s9.3-1.2,13-3.6s6.4-5.9,8.1-10.6V416h-18.4
			C124.4,416.1,118.1,420.2,118.1,428.4z"/>
		<path fill="#F7931E" d="M782.9,276.7H45.1c-10.1,0-18.3,8.2-18.3,18.3v210.8c0,10.1,8.2,18.3,18.3,18.3h737.8
			c10.1,0,18.3-8.2,18.3-18.3V295C801.2,284.9,793,276.7,782.9,276.7z M197.8,465.7h-39.7V450c-6.1,11.8-18.1,17.7-35.9,17.7
			c-9.4,0-17.6-1.6-24.5-4.9s-12.1-7.7-15.6-13.4c-3.5-5.6-5.3-12-5.3-19.2c0-11.5,4.4-20.5,13.2-26.8c8.8-6.4,22.5-9.5,40.9-9.5
			h24.2c-0.8-12.9-9.4-19.3-25.8-19.3c-5.8,0-11.8,0.9-17.7,2.8c-6,1.9-11.1,4.5-15.3,7.7l-14.4-29c6.7-4.5,14.9-8,24.6-10.4
			s19.3-3.7,29.1-3.7c20.2,0,35.6,4.6,46.3,13.8c10.6,9.2,15.9,23.3,15.9,42.3L197.8,465.7L197.8,465.7z M269.2,410.3
			c3.7,6.8,9,12.1,15.7,15.9s14.4,5.7,23.1,5.7c8.5,0,16.5-1.7,24-5.2v-43.1h39.3v65.1c-9,6.4-19.3,11.4-31,14.8s-23.4,5.2-35,5.2
			c-16.5,0-31.3-3.5-44.5-10.4c-13.2-7-23.5-16.6-31-29.1c-7.5-12.4-11.2-26.5-11.2-42.2s3.7-29.8,11.2-42.2
			c7.5-12.4,17.9-22.1,31.2-29.1c13.3-7,28.4-10.4,45.1-10.4c14.7,0,27.8,2.5,39.5,7.4s21.4,12.1,29.2,21.3l-28.3,25.6
			c-10.6-11.7-23.3-17.5-38.2-17.5c-13.5,0-24.3,4.1-32.6,12.2c-8.2,8.2-12.3,19-12.3,32.7C263.6,395.8,265.5,403.5,269.2,410.3z
			 M473.3,470.6c-6.1,15-13.6,25.5-22.5,31.5c-8.8,6.1-19.6,9.1-32.3,9.1c-6.4,0-12.9-1-19.4-3s-11.8-4.7-15.8-8l14.8-29.9
			c2.4,2.2,5.3,4,8.6,5.3c3.4,1.3,6.8,1.9,10.2,1.9c4,0,7.4-0.8,10-2.5c2.6-1.6,4.8-4.3,6.6-7.9l-52-123.1h43.8l29.9,74.3l30.1-74.3
			h40.6L473.3,470.6z M744.5,465.7h-42.7V403c0-8.5-1.6-14.8-4.8-18.9c-3.2-4-7.7-6.1-13.6-6.1c-6.4,0-11.6,2.2-15.5,6.7
			s-5.8,11.3-5.8,20.4v60.4h-42.7V403c0-16.6-6.1-24.9-18.4-24.9c-6.6,0-11.8,2.2-15.7,6.7s-5.8,11.3-5.8,20.4v60.4h-42.7V344h40.6
			v12.8c4.5-4.9,9.8-8.6,16.1-11.1c6.2-2.5,13-3.7,20.3-3.7c8.5,0,16.2,1.6,22.9,4.7s12.2,7.9,16.4,14.4
			c4.8-6.1,10.9-10.9,18.2-14.1c7.3-3.3,15.3-4.9,24-4.9c15,0,26.9,4.5,35.8,13.5c8.9,9,13.4,22.5,13.4,40.6V465.7z"/>
	</g>
	<g enable-background="new    ">
		<path fill="#F7931E" d="M886.5,342.9v34.6h69.4v34.4h-69.4v53.9H842V308.5h123.3v34.4H886.5z"/>
		<path fill="#F7931E" d="M984.1,299.1h42.7v166.6h-42.7L984.1,299.1L984.1,299.1z"/>
		<path fill="#F7931E" d="M1056.9,324c-4.8-4.3-7.2-9.7-7.2-16.2c0-6.4,2.4-11.8,7.2-16.2c4.8-4.3,11.1-6.5,18.9-6.5
			s14.1,2.1,18.9,6.2s7.2,9.4,7.2,15.8c0,6.7-2.4,12.3-7.2,16.7c-4.8,4.4-11.1,6.6-18.9,6.6C1067.9,330.5,1061.6,328.4,1056.9,324z
			 M1054.4,344h42.7v121.7h-42.7V344z"/>
		<path fill="#F7931E" d="M1201.9,465.7l-21.8-31.9l-23.3,31.9h-46.3l46.3-60.8l-44.9-60.8h48l21.6,30.8l22.5-30.8h45.1l-44.9,59.3
			l46.5,62.4h-48.8V465.7z"/>
	</g>
</g>
</svg>
